<?xml version="1.0" ?><!DOCTYPE svg  PUBLIC '-//W3C//DTD SVG 1.1//EN'  'http://www.w3.org/Graphics/SVG/1.1/DTD/svg11.dtd'>
  <svg enable-background="new 0 0 32 32" height="32px" id="Слой_1" version="1.1" viewBox="0 0 32 32" width="32px" xml:space="preserve" xmlns="http://www.w3.org/2000/svg" xmlns:xlink="http://www.w3.org/1999/xlink">
    <g id="Close_Square">
      <path d="M16,0C7.163,0,0,7.163,0,16c0,8.837,7.163,16,16,16c8.836,0,16-7.164,16-16C32,7.163,24.836,0,16,0z M16,30   C8.268,30,2,23.732,2,16C2,8.268,8.268,2,16,2s14,6.268,14,14C30,23.732,23.732,30,16,30z" fill="#841F27"/>
        <path d="M9.271,22.707c0.394,0.39,1.034,0.39,1.429,0l5.324-5.28l5.276,5.276c0.394,0.395,1.034,0.395,1.428,0   c0.394-0.395,0.394-1.037,0-1.432l-5.268-5.269l5.238-5.195c0.394-0.391,0.394-1.024,0-1.414c-0.394-0.391-1.034-0.391-1.428,0   l-5.231,5.188l-5.309-5.31c-0.394-0.395-1.034-0.395-1.428,0c-0.394,0.396-0.394,1.037,0,1.432l5.301,5.302l-5.331,5.287   C8.877,21.683,8.877,22.317,9.271,22.707z" fill="#841F27"/></g><g/><g/><g/><g/><g/><g/></svg>